<svg xmlns="http://www.w3.org/2000/svg"  viewBox="0 0 40 40" width="40px" height="40px"><path fill="#b6dcfe" d="M10,37.5c-4.136,0-7.5-3.364-7.5-7.5V10c0-4.136,3.364-7.5,7.5-7.5h20c4.136,0,7.5,3.364,7.5,7.5v20 c0,4.136-3.364,7.5-7.5,7.5H10z"/><path fill="#4788c7" d="M30,3c3.86,0,7,3.14,7,7v20c0,3.86-3.14,7-7,7H10c-3.86,0-7-3.14-7-7V10c0-3.86,3.14-7,7-7H30 M30,2H10c-4.418,0-8,3.582-8,8v20c0,4.418,3.582,8,8,8h20c4.418,0,8-3.582,8-8V10C38,5.582,34.418,2,30,2L30,2z"/><g><path fill="#fff" d="M22.333,30h-9.167l-2.5-18.333l6.667-0.834L19,24.167c1.528-2.432,3.333-6.561,3.333-9.167 c0-1.426-0.443-2.533-0.833-3.333L28.167,10C28.878,11.148,29,13.163,29,14.655C29,19.417,25.708,25.657,22.333,30z"/></g></svg>