<svg xmlns="http://www.w3.org/2000/svg" xmlns:xlink="http://www.w3.org/1999/xlink" viewBox="0,0,256,256" width="50px" height="50px"><g fill="#3494e1" fill-rule="nonzero" stroke="none" stroke-width="1" stroke-linecap="butt" stroke-linejoin="miter" stroke-miterlimit="10" stroke-dasharray="" stroke-dashoffset="0" font-family="none" font-weight="none" font-size="none" text-anchor="none" style="mix-blend-mode: normal"><g transform="scale(5.12,5.12)"><path d="M11,4c-3.866,0 -7,3.134 -7,7v28c0,3.866 3.134,7 7,7h28c3.866,0 7,-3.134 7,-7v-28c0,-3.866 -3.134,-7 -7,-7zM11,6h28c2.757,0 5,2.243 5,5v28c0,2.757 -2.243,5 -5,5h-28c-2.757,0 -5,-2.243 -5,-5v-28c0,-2.757 2.243,-5 5,-5zM24.9043,9.99414c-2.237,0 -4.79089,0.16238 -7.58789,0.48438l-0.59766,0.07031c-2.038,0.234 -2.00691,2.11859 -2.00391,3.68359c0.008,3.45 -0.89003,6.92341 -1.45703,10.31641c-0.481,2.875 -0.95011,5.75091 -1.41211,8.62891c-0.223,0.849 -0.55044,2.8713 0.72656,4.6543c0.71,0.991 2.11711,2.17188 4.78711,2.17188c0.366,0 0.75625,-0.02241 1.15625,-0.06641c2.49,-0.277 4.21209,-0.87811 5.12109,-1.78711l0.81641,-0.81445c1.024,1.524 2.86275,2.64844 5.21875,2.64844c0.45,0 0.79158,-0.02703 1.26758,-0.08203c2.108,-0.244 3.74434,-0.75809 4.90234,-1.24609c1.208,-0.509 1.76372,-1.90714 1.26172,-3.11914l-3.27539,-7.91406c1.95,-1.555 3.80859,-4.13488 3.80859,-7.92187c0,-5.03 -2.50059,-8.14386 -7.43359,-9.25586c-0.473,-0.117 -2.10883,-0.45117 -5.29883,-0.45117zM25.16992,13.14258c3.03906,0.01929 4.30664,0.36523 4.30664,0.36523c2.655,0.59 5.01367,1.86236 5.01367,6.19336c0,5.113 -4.62109,6.58789 -4.62109,6.58789c0,0 1.99191,5.535 2.75391,7.375c0.246,0.594 1.27734,2.35938 1.27734,2.35938c0,0 -0.39306,0.19711 -3.53906,0.78711c-3.281,0.615 -3.83398,-2.55664 -3.83398,-2.55664l-2.26172,-6.19531h-2.26172c0,0 -0.38519,4.37478 -0.49219,5.80078c-0.041,0.541 -0.09766,2.06641 -0.09766,2.06641c0,0 -0.58914,0.58977 -3.24414,0.88477c-4.415,0.491 -3.24609,-2.95117 -3.24609,-2.95117c0,0 2.06599,-12.87978 2.45898,-14.55078c0.393,-1.672 0.29492,-5.70312 0.29492,-5.70312c3.20775,-0.36862 5.66875,-0.47446 7.49219,-0.46289zM24.5332,16.59766c-0.39792,0.01234 -0.66211,0.05664 -0.66211,0.05664l-1.27734,7.86523h2.35938c0,0 3.38509,-0.49294 3.24609,-5.21094c-0.07425,-2.508 -2.47225,-2.74797 -3.66602,-2.71094z"></path></g></g></svg>